<mxfile host="app.diagrams.net" agent="Mozilla/5.0 (Windows NT 10.0; Win64; x64) AppleWebKit/537.36 (KHTML, like Gecko) Chrome/135.0.0.0 Safari/537.36" version="26.2.12">
  <diagram name="PÃ¡gina-1" id="vQgWZf7FvtR_4U-VKZTJ">
    <mxGraphModel dx="1701" dy="473" grid="1" gridSize="10" guides="1" tooltips="1" connect="1" arrows="1" fold="1" page="1" pageScale="1" pageWidth="827" pageHeight="1169" math="0" shadow="0">
      <root>
        <mxCell id="0" />
        <mxCell id="1" parent="0" />
        <mxCell id="oZB_IGU-Cqb-h6OOu6P0-3" value="" style="endArrow=classic;html=1;rounded=0;" edge="1" parent="1">
          <mxGeometry width="50" height="50" relative="1" as="geometry">
            <mxPoint x="20" y="399.5" as="sourcePoint" />
            <mxPoint x="50" y="399.5" as="targetPoint" />
          </mxGeometry>
        </mxCell>
        <mxCell id="oZB_IGU-Cqb-h6OOu6P0-27" style="edgeStyle=orthogonalEdgeStyle;rounded=0;orthogonalLoop=1;jettySize=auto;html=1;fontFamily=Helvetica;fontSize=12;fontColor=default;exitX=0;exitY=0;exitDx=0;exitDy=0;entryX=0;entryY=1;entryDx=0;entryDy=0;" edge="1" parent="1" source="oZB_IGU-Cqb-h6OOu6P0-13" target="oZB_IGU-Cqb-h6OOu6P0-19">
          <mxGeometry relative="1" as="geometry">
            <mxPoint x="40" y="300" as="sourcePoint" />
          </mxGeometry>
        </mxCell>
        <mxCell id="oZB_IGU-Cqb-h6OOu6P0-39" style="edgeStyle=orthogonalEdgeStyle;rounded=0;orthogonalLoop=1;jettySize=auto;html=1;fontFamily=Helvetica;fontSize=12;fontColor=default;exitX=1;exitY=0;exitDx=0;exitDy=0;entryX=0;entryY=0;entryDx=0;entryDy=0;" edge="1" parent="1" source="oZB_IGU-Cqb-h6OOu6P0-13" target="oZB_IGU-Cqb-h6OOu6P0-14">
          <mxGeometry relative="1" as="geometry">
            <mxPoint x="290" y="380" as="targetPoint" />
          </mxGeometry>
        </mxCell>
        <mxCell id="oZB_IGU-Cqb-h6OOu6P0-13" value="F0" style="ellipse;whiteSpace=wrap;html=1;aspect=fixed;" vertex="1" parent="1">
          <mxGeometry x="60" y="370" width="60" height="60" as="geometry" />
        </mxCell>
        <mxCell id="oZB_IGU-Cqb-h6OOu6P0-28" style="edgeStyle=orthogonalEdgeStyle;rounded=0;orthogonalLoop=1;jettySize=auto;html=1;fontFamily=Helvetica;fontSize=12;fontColor=default;exitX=0;exitY=0;exitDx=0;exitDy=0;entryX=0;entryY=1;entryDx=0;entryDy=0;" edge="1" parent="1" source="oZB_IGU-Cqb-h6OOu6P0-14" target="oZB_IGU-Cqb-h6OOu6P0-23">
          <mxGeometry relative="1" as="geometry" />
        </mxCell>
        <mxCell id="oZB_IGU-Cqb-h6OOu6P0-48" style="edgeStyle=orthogonalEdgeStyle;rounded=0;orthogonalLoop=1;jettySize=auto;html=1;entryX=1;entryY=1;entryDx=0;entryDy=0;fontFamily=Helvetica;fontSize=12;fontColor=default;exitX=0;exitY=1;exitDx=0;exitDy=0;" edge="1" parent="1" source="oZB_IGU-Cqb-h6OOu6P0-14" target="oZB_IGU-Cqb-h6OOu6P0-13">
          <mxGeometry relative="1" as="geometry" />
        </mxCell>
        <mxCell id="oZB_IGU-Cqb-h6OOu6P0-49" style="edgeStyle=orthogonalEdgeStyle;rounded=0;orthogonalLoop=1;jettySize=auto;html=1;entryX=0;entryY=0;entryDx=0;entryDy=0;fontFamily=Helvetica;fontSize=12;fontColor=default;exitX=1;exitY=0;exitDx=0;exitDy=0;" edge="1" parent="1" source="oZB_IGU-Cqb-h6OOu6P0-14" target="oZB_IGU-Cqb-h6OOu6P0-16">
          <mxGeometry relative="1" as="geometry" />
        </mxCell>
        <mxCell id="oZB_IGU-Cqb-h6OOu6P0-14" value="&lt;span style=&quot;background-color: transparent; color: light-dark(rgb(0, 0, 0), rgb(255, 255, 255));&quot;&gt;F1&lt;/span&gt;" style="ellipse;whiteSpace=wrap;html=1;aspect=fixed;" vertex="1" parent="1">
          <mxGeometry x="290" y="370" width="60" height="60" as="geometry" />
        </mxCell>
        <mxCell id="oZB_IGU-Cqb-h6OOu6P0-29" style="edgeStyle=orthogonalEdgeStyle;rounded=0;orthogonalLoop=1;jettySize=auto;html=1;fontFamily=Helvetica;fontSize=12;fontColor=default;exitX=0;exitY=0;exitDx=0;exitDy=0;entryX=0;entryY=1;entryDx=0;entryDy=0;" edge="1" parent="1" source="oZB_IGU-Cqb-h6OOu6P0-16" target="oZB_IGU-Cqb-h6OOu6P0-24">
          <mxGeometry relative="1" as="geometry" />
        </mxCell>
        <mxCell id="oZB_IGU-Cqb-h6OOu6P0-50" style="edgeStyle=orthogonalEdgeStyle;rounded=0;orthogonalLoop=1;jettySize=auto;html=1;entryX=1;entryY=1;entryDx=0;entryDy=0;fontFamily=Helvetica;fontSize=12;fontColor=default;exitX=0;exitY=1;exitDx=0;exitDy=0;" edge="1" parent="1" source="oZB_IGU-Cqb-h6OOu6P0-16" target="oZB_IGU-Cqb-h6OOu6P0-14">
          <mxGeometry relative="1" as="geometry" />
        </mxCell>
        <mxCell id="oZB_IGU-Cqb-h6OOu6P0-51" style="edgeStyle=orthogonalEdgeStyle;rounded=0;orthogonalLoop=1;jettySize=auto;html=1;entryX=0;entryY=0;entryDx=0;entryDy=0;fontFamily=Helvetica;fontSize=12;fontColor=default;exitX=1;exitY=0;exitDx=0;exitDy=0;" edge="1" parent="1" source="oZB_IGU-Cqb-h6OOu6P0-16" target="oZB_IGU-Cqb-h6OOu6P0-17">
          <mxGeometry relative="1" as="geometry" />
        </mxCell>
        <mxCell id="oZB_IGU-Cqb-h6OOu6P0-16" value="F2" style="ellipse;whiteSpace=wrap;html=1;aspect=fixed;" vertex="1" parent="1">
          <mxGeometry x="490" y="370" width="60" height="60" as="geometry" />
        </mxCell>
        <mxCell id="oZB_IGU-Cqb-h6OOu6P0-30" style="edgeStyle=orthogonalEdgeStyle;rounded=0;orthogonalLoop=1;jettySize=auto;html=1;entryX=0;entryY=1;entryDx=0;entryDy=0;fontFamily=Helvetica;fontSize=12;fontColor=default;exitX=0;exitY=0;exitDx=0;exitDy=0;" edge="1" parent="1" source="oZB_IGU-Cqb-h6OOu6P0-17" target="oZB_IGU-Cqb-h6OOu6P0-25">
          <mxGeometry relative="1" as="geometry" />
        </mxCell>
        <mxCell id="oZB_IGU-Cqb-h6OOu6P0-52" style="edgeStyle=orthogonalEdgeStyle;rounded=0;orthogonalLoop=1;jettySize=auto;html=1;entryX=1;entryY=1;entryDx=0;entryDy=0;fontFamily=Helvetica;fontSize=12;fontColor=default;exitX=0;exitY=1;exitDx=0;exitDy=0;" edge="1" parent="1" source="oZB_IGU-Cqb-h6OOu6P0-17" target="oZB_IGU-Cqb-h6OOu6P0-16">
          <mxGeometry relative="1" as="geometry" />
        </mxCell>
        <mxCell id="oZB_IGU-Cqb-h6OOu6P0-17" value="F3" style="ellipse;whiteSpace=wrap;html=1;aspect=fixed;" vertex="1" parent="1">
          <mxGeometry x="700" y="370" width="60" height="60" as="geometry" />
        </mxCell>
        <mxCell id="oZB_IGU-Cqb-h6OOu6P0-35" style="edgeStyle=orthogonalEdgeStyle;rounded=0;orthogonalLoop=1;jettySize=auto;html=1;entryX=1;entryY=0;entryDx=0;entryDy=0;fontFamily=Helvetica;fontSize=12;fontColor=default;exitX=1;exitY=1;exitDx=0;exitDy=0;" edge="1" parent="1">
          <mxGeometry relative="1" as="geometry">
            <mxPoint x="112.21320343559648" y="111.21320343559648" as="sourcePoint" />
            <mxPoint x="112.21320343559648" y="378.7867965644035" as="targetPoint" />
          </mxGeometry>
        </mxCell>
        <mxCell id="oZB_IGU-Cqb-h6OOu6P0-36" value="1, e, 1" style="edgeLabel;html=1;align=center;verticalAlign=middle;resizable=0;points=[];strokeColor=default;fontFamily=Helvetica;fontSize=12;fontColor=default;fillColor=default;" vertex="1" connectable="0" parent="oZB_IGU-Cqb-h6OOu6P0-35">
          <mxGeometry x="0.0673" y="-1" relative="1" as="geometry">
            <mxPoint x="23" y="-54" as="offset" />
          </mxGeometry>
        </mxCell>
        <mxCell id="oZB_IGU-Cqb-h6OOu6P0-19" value="A0" style="ellipse;shape=doubleEllipse;whiteSpace=wrap;html=1;aspect=fixed;strokeColor=default;align=center;verticalAlign=middle;fontFamily=Helvetica;fontSize=12;fontColor=default;fillColor=default;" vertex="1" parent="1">
          <mxGeometry x="60" y="60" width="60" height="60" as="geometry" />
        </mxCell>
        <mxCell id="oZB_IGU-Cqb-h6OOu6P0-43" style="edgeStyle=orthogonalEdgeStyle;rounded=0;orthogonalLoop=1;jettySize=auto;html=1;entryX=1;entryY=0;entryDx=0;entryDy=0;fontFamily=Helvetica;fontSize=12;fontColor=default;exitX=1;exitY=1;exitDx=0;exitDy=0;" edge="1" parent="1" source="oZB_IGU-Cqb-h6OOu6P0-23" target="oZB_IGU-Cqb-h6OOu6P0-14">
          <mxGeometry relative="1" as="geometry" />
        </mxCell>
        <mxCell id="oZB_IGU-Cqb-h6OOu6P0-23" value="A1" style="ellipse;shape=doubleEllipse;whiteSpace=wrap;html=1;aspect=fixed;strokeColor=default;align=center;verticalAlign=middle;fontFamily=Helvetica;fontSize=12;fontColor=default;fillColor=default;" vertex="1" parent="1">
          <mxGeometry x="290" y="60" width="60" height="60" as="geometry" />
        </mxCell>
        <mxCell id="oZB_IGU-Cqb-h6OOu6P0-24" value="A2" style="ellipse;shape=doubleEllipse;whiteSpace=wrap;html=1;aspect=fixed;strokeColor=default;align=center;verticalAlign=middle;fontFamily=Helvetica;fontSize=12;fontColor=default;fillColor=default;" vertex="1" parent="1">
          <mxGeometry x="490" y="60" width="60" height="60" as="geometry" />
        </mxCell>
        <mxCell id="oZB_IGU-Cqb-h6OOu6P0-45" style="edgeStyle=orthogonalEdgeStyle;rounded=0;orthogonalLoop=1;jettySize=auto;html=1;entryX=1;entryY=0;entryDx=0;entryDy=0;fontFamily=Helvetica;fontSize=12;fontColor=default;exitX=1;exitY=1;exitDx=0;exitDy=0;" edge="1" parent="1" source="oZB_IGU-Cqb-h6OOu6P0-25" target="oZB_IGU-Cqb-h6OOu6P0-17">
          <mxGeometry relative="1" as="geometry" />
        </mxCell>
        <mxCell id="oZB_IGU-Cqb-h6OOu6P0-25" value="A3" style="ellipse;shape=doubleEllipse;whiteSpace=wrap;html=1;aspect=fixed;strokeColor=default;align=center;verticalAlign=middle;fontFamily=Helvetica;fontSize=12;fontColor=default;fillColor=default;" vertex="1" parent="1">
          <mxGeometry x="700" y="60" width="60" height="60" as="geometry" />
        </mxCell>
        <mxCell id="oZB_IGU-Cqb-h6OOu6P0-32" value="a, e, e" style="edgeLabel;html=1;align=center;verticalAlign=middle;resizable=0;points=[];strokeColor=default;fontFamily=Helvetica;fontSize=12;fontColor=default;fillColor=default;" vertex="1" connectable="0" parent="1">
          <mxGeometry x="190" y="230" as="geometry">
            <mxPoint x="78" y="-1" as="offset" />
          </mxGeometry>
        </mxCell>
        <mxCell id="oZB_IGU-Cqb-h6OOu6P0-33" value="a, s, 3" style="edgeLabel;html=1;align=center;verticalAlign=middle;resizable=0;points=[];strokeColor=default;fontFamily=Helvetica;fontSize=12;fontColor=default;fillColor=default;" vertex="1" connectable="0" parent="1">
          <mxGeometry x="55" y="280" as="geometry">
            <mxPoint x="411" y="-10" as="offset" />
          </mxGeometry>
        </mxCell>
        <mxCell id="oZB_IGU-Cqb-h6OOu6P0-37" value="2, e, 2" style="edgeLabel;html=1;align=center;verticalAlign=middle;resizable=0;points=[];strokeColor=default;fontFamily=Helvetica;fontSize=12;fontColor=default;fillColor=default;" vertex="1" connectable="0" parent="1">
          <mxGeometry x="136.00320343559648" y="220.00320343559648" as="geometry">
            <mxPoint x="-3" y="-2" as="offset" />
          </mxGeometry>
        </mxCell>
        <mxCell id="oZB_IGU-Cqb-h6OOu6P0-38" value="3, e, s" style="edgeLabel;html=1;align=center;verticalAlign=middle;resizable=0;points=[];strokeColor=default;fontFamily=Helvetica;fontSize=12;fontColor=default;fillColor=default;" vertex="1" connectable="0" parent="1">
          <mxGeometry x="150.00320343559648" y="220.00320343559648" as="geometry">
            <mxPoint x="-17" y="16" as="offset" />
          </mxGeometry>
        </mxCell>
        <mxCell id="oZB_IGU-Cqb-h6OOu6P0-41" value="a, 1, e" style="edgeLabel;html=1;align=center;verticalAlign=middle;resizable=0;points=[];strokeColor=default;fontFamily=Helvetica;fontSize=12;fontColor=default;fillColor=default;" vertex="1" connectable="0" parent="1">
          <mxGeometry x="190" y="250" as="geometry">
            <mxPoint x="78" y="-1" as="offset" />
          </mxGeometry>
        </mxCell>
        <mxCell id="oZB_IGU-Cqb-h6OOu6P0-44" style="edgeStyle=orthogonalEdgeStyle;rounded=0;orthogonalLoop=1;jettySize=auto;html=1;entryX=1;entryY=0;entryDx=0;entryDy=0;fontFamily=Helvetica;fontSize=12;fontColor=default;exitX=0.85;exitY=0.967;exitDx=0;exitDy=0;exitPerimeter=0;" edge="1" parent="1" source="oZB_IGU-Cqb-h6OOu6P0-24" target="oZB_IGU-Cqb-h6OOu6P0-16">
          <mxGeometry relative="1" as="geometry" />
        </mxCell>
        <mxCell id="oZB_IGU-Cqb-h6OOu6P0-46" value="0, e, 0" style="edgeLabel;html=1;align=center;verticalAlign=middle;resizable=0;points=[];strokeColor=default;fontFamily=Helvetica;fontSize=12;fontColor=default;fillColor=default;" vertex="1" connectable="0" parent="1">
          <mxGeometry x="283" y="180" as="geometry">
            <mxPoint x="78" y="-1" as="offset" />
          </mxGeometry>
        </mxCell>
        <mxCell id="oZB_IGU-Cqb-h6OOu6P0-53" value="c, e, e" style="edgeLabel;html=1;align=center;verticalAlign=middle;resizable=0;points=[];strokeColor=default;fontFamily=Helvetica;fontSize=12;fontColor=default;fillColor=default;" vertex="1" connectable="0" parent="1">
          <mxGeometry x="210.00320343559648" y="350.00320343559645" as="geometry">
            <mxPoint x="-17" y="16" as="offset" />
          </mxGeometry>
        </mxCell>
        <mxCell id="oZB_IGU-Cqb-h6OOu6P0-54" value="c, e, e" style="edgeLabel;html=1;align=center;verticalAlign=middle;resizable=0;points=[];strokeColor=default;fontFamily=Helvetica;fontSize=12;fontColor=default;fillColor=default;" vertex="1" connectable="0" parent="1">
          <mxGeometry x="430.00320343559645" y="350.00320343559645" as="geometry">
            <mxPoint x="-17" y="16" as="offset" />
          </mxGeometry>
        </mxCell>
        <mxCell id="oZB_IGU-Cqb-h6OOu6P0-55" value="t, e, L" style="edgeLabel;html=1;align=center;verticalAlign=middle;resizable=0;points=[];strokeColor=default;fontFamily=Helvetica;fontSize=12;fontColor=default;fillColor=default;" vertex="1" connectable="0" parent="1">
          <mxGeometry x="282" y="200" as="geometry">
            <mxPoint x="78" y="-1" as="offset" />
          </mxGeometry>
        </mxCell>
        <mxCell id="oZB_IGU-Cqb-h6OOu6P0-56" value="t, e, L" style="edgeLabel;html=1;align=center;verticalAlign=middle;resizable=0;points=[];strokeColor=default;fontFamily=Helvetica;fontSize=12;fontColor=default;fillColor=default;" vertex="1" connectable="0" parent="1">
          <mxGeometry x="55" y="180" as="geometry">
            <mxPoint x="78" y="-1" as="offset" />
          </mxGeometry>
        </mxCell>
        <mxCell id="oZB_IGU-Cqb-h6OOu6P0-57" value="2, e, 2" style="edgeLabel;html=1;align=center;verticalAlign=middle;resizable=0;points=[];strokeColor=default;fontFamily=Helvetica;fontSize=12;fontColor=default;fillColor=default;" vertex="1" connectable="0" parent="1">
          <mxGeometry x="285" y="219" as="geometry">
            <mxPoint x="78" y="-1" as="offset" />
          </mxGeometry>
        </mxCell>
        <mxCell id="oZB_IGU-Cqb-h6OOu6P0-58" value="3, e, 3" style="edgeLabel;html=1;align=center;verticalAlign=middle;resizable=0;points=[];strokeColor=default;fontFamily=Helvetica;fontSize=12;fontColor=default;fillColor=default;" vertex="1" connectable="0" parent="1">
          <mxGeometry x="284" y="238" as="geometry">
            <mxPoint x="78" y="-1" as="offset" />
          </mxGeometry>
        </mxCell>
        <mxCell id="oZB_IGU-Cqb-h6OOu6P0-59" value="c, e, e" style="edgeLabel;html=1;align=center;verticalAlign=middle;resizable=0;points=[];strokeColor=default;fontFamily=Helvetica;fontSize=12;fontColor=default;fillColor=default;" vertex="1" connectable="0" parent="1">
          <mxGeometry x="650.0032034355964" y="350.00320343559645" as="geometry">
            <mxPoint x="-17" y="16" as="offset" />
          </mxGeometry>
        </mxCell>
        <mxCell id="oZB_IGU-Cqb-h6OOu6P0-60" value="c, e, e" style="edgeLabel;html=1;align=center;verticalAlign=middle;resizable=0;points=[];strokeColor=default;fontFamily=Helvetica;fontSize=12;fontColor=default;fillColor=default;" vertex="1" connectable="0" parent="1">
          <mxGeometry x="650.0032034355964" y="390.00320343559645" as="geometry">
            <mxPoint x="-17" y="16" as="offset" />
          </mxGeometry>
        </mxCell>
        <mxCell id="oZB_IGU-Cqb-h6OOu6P0-61" value="c, e, e" style="edgeLabel;html=1;align=center;verticalAlign=middle;resizable=0;points=[];strokeColor=default;fontFamily=Helvetica;fontSize=12;fontColor=default;fillColor=default;" vertex="1" connectable="0" parent="1">
          <mxGeometry x="430.00320343559645" y="390.00320343559645" as="geometry">
            <mxPoint x="-17" y="16" as="offset" />
          </mxGeometry>
        </mxCell>
        <mxCell id="oZB_IGU-Cqb-h6OOu6P0-62" value="c, e, e" style="edgeLabel;html=1;align=center;verticalAlign=middle;resizable=0;points=[];strokeColor=default;fontFamily=Helvetica;fontSize=12;fontColor=default;fillColor=default;" vertex="1" connectable="0" parent="1">
          <mxGeometry x="210.00320343559645" y="390.00320343559645" as="geometry">
            <mxPoint x="-17" y="16" as="offset" />
          </mxGeometry>
        </mxCell>
        <mxCell id="oZB_IGU-Cqb-h6OOu6P0-64" value="" style="curved=1;endArrow=classic;html=1;rounded=0;fontFamily=Helvetica;fontSize=12;fontColor=default;exitX=0.4;exitY=1.033;exitDx=0;exitDy=0;exitPerimeter=0;" edge="1" parent="1" source="oZB_IGU-Cqb-h6OOu6P0-13">
          <mxGeometry width="50" height="50" relative="1" as="geometry">
            <mxPoint x="10" y="450" as="sourcePoint" />
            <mxPoint x="60" y="400" as="targetPoint" />
            <Array as="points">
              <mxPoint x="90" y="480" />
              <mxPoint x="30" y="460" />
            </Array>
          </mxGeometry>
        </mxCell>
        <mxCell id="oZB_IGU-Cqb-h6OOu6P0-65" value="" style="curved=1;endArrow=classic;html=1;rounded=0;fontFamily=Helvetica;fontSize=12;fontColor=default;exitX=1;exitY=1;exitDx=0;exitDy=0;entryX=0;entryY=1;entryDx=0;entryDy=0;" edge="1" parent="1" source="oZB_IGU-Cqb-h6OOu6P0-14" target="oZB_IGU-Cqb-h6OOu6P0-14">
          <mxGeometry width="50" height="50" relative="1" as="geometry">
            <mxPoint x="260" y="490" as="sourcePoint" />
            <mxPoint x="310" y="440" as="targetPoint" />
            <Array as="points">
              <mxPoint x="310" y="490" />
              <mxPoint x="270" y="470" />
            </Array>
          </mxGeometry>
        </mxCell>
        <mxCell id="oZB_IGU-Cqb-h6OOu6P0-66" value="" style="curved=1;endArrow=classic;html=1;rounded=0;fontFamily=Helvetica;fontSize=12;fontColor=default;entryX=0;entryY=1;entryDx=0;entryDy=0;exitX=1;exitY=1;exitDx=0;exitDy=0;" edge="1" parent="1" source="oZB_IGU-Cqb-h6OOu6P0-17" target="oZB_IGU-Cqb-h6OOu6P0-17">
          <mxGeometry width="50" height="50" relative="1" as="geometry">
            <mxPoint x="660" y="480" as="sourcePoint" />
            <mxPoint x="710" y="430" as="targetPoint" />
            <Array as="points">
              <mxPoint x="740" y="480" />
              <mxPoint x="680" y="460" />
            </Array>
          </mxGeometry>
        </mxCell>
        <mxCell id="oZB_IGU-Cqb-h6OOu6P0-68" value="" style="curved=1;endArrow=classic;html=1;rounded=0;fontFamily=Helvetica;fontSize=12;fontColor=default;exitX=1;exitY=1;exitDx=0;exitDy=0;entryX=0;entryY=1;entryDx=0;entryDy=0;" edge="1" parent="1" source="oZB_IGU-Cqb-h6OOu6P0-16" target="oZB_IGU-Cqb-h6OOu6P0-16">
          <mxGeometry width="50" height="50" relative="1" as="geometry">
            <mxPoint x="450" y="470" as="sourcePoint" />
            <mxPoint x="490" y="420" as="targetPoint" />
            <Array as="points">
              <mxPoint x="520" y="480" />
              <mxPoint x="470" y="440" />
            </Array>
          </mxGeometry>
        </mxCell>
        <mxCell id="oZB_IGU-Cqb-h6OOu6P0-69" value="c, L, e" style="edgeLabel;html=1;align=center;verticalAlign=middle;resizable=0;points=[];strokeColor=default;fontFamily=Helvetica;fontSize=12;fontColor=default;fillColor=default;" vertex="1" connectable="0" parent="1">
          <mxGeometry x="350.00320343559645" y="470.00320343559645" as="geometry">
            <mxPoint x="-17" y="16" as="offset" />
          </mxGeometry>
        </mxCell>
        <mxCell id="oZB_IGU-Cqb-h6OOu6P0-70" value="c, L, e" style="edgeLabel;html=1;align=center;verticalAlign=middle;resizable=0;points=[];strokeColor=default;fontFamily=Helvetica;fontSize=12;fontColor=default;fillColor=default;" vertex="1" connectable="0" parent="1">
          <mxGeometry x="100.00320343559645" y="470.00320343559645" as="geometry">
            <mxPoint x="-17" y="16" as="offset" />
          </mxGeometry>
        </mxCell>
        <mxCell id="oZB_IGU-Cqb-h6OOu6P0-71" value="c, L, e" style="edgeLabel;html=1;align=center;verticalAlign=middle;resizable=0;points=[];strokeColor=default;fontFamily=Helvetica;fontSize=12;fontColor=default;fillColor=default;" vertex="1" connectable="0" parent="1">
          <mxGeometry x="550.0032034355964" y="460.00320343559645" as="geometry">
            <mxPoint x="-17" y="16" as="offset" />
          </mxGeometry>
        </mxCell>
        <mxCell id="oZB_IGU-Cqb-h6OOu6P0-72" value="c, L, e" style="edgeLabel;html=1;align=center;verticalAlign=middle;resizable=0;points=[];strokeColor=default;fontFamily=Helvetica;fontSize=12;fontColor=default;fillColor=default;" vertex="1" connectable="0" parent="1">
          <mxGeometry x="760.0032034355964" y="470.00320343559645" as="geometry">
            <mxPoint x="-17" y="16" as="offset" />
          </mxGeometry>
        </mxCell>
        <mxCell id="oZB_IGU-Cqb-h6OOu6P0-73" value="0, e, 0" style="edgeLabel;html=1;align=center;verticalAlign=middle;resizable=0;points=[];strokeColor=default;fontFamily=Helvetica;fontSize=12;fontColor=default;fillColor=default;" vertex="1" connectable="0" parent="1">
          <mxGeometry x="490" y="180" as="geometry">
            <mxPoint x="78" y="-1" as="offset" />
          </mxGeometry>
        </mxCell>
        <mxCell id="oZB_IGU-Cqb-h6OOu6P0-74" value="t, e, L" style="edgeLabel;html=1;align=center;verticalAlign=middle;resizable=0;points=[];strokeColor=default;fontFamily=Helvetica;fontSize=12;fontColor=default;fillColor=default;" vertex="1" connectable="0" parent="1">
          <mxGeometry x="490" y="200" as="geometry">
            <mxPoint x="78" y="-1" as="offset" />
          </mxGeometry>
        </mxCell>
        <mxCell id="oZB_IGU-Cqb-h6OOu6P0-75" value="t, 3, 3&amp;nbsp;" style="edgeLabel;html=1;align=center;verticalAlign=middle;resizable=0;points=[];strokeColor=default;fontFamily=Helvetica;fontSize=12;fontColor=default;fillColor=default;" vertex="1" connectable="0" parent="1">
          <mxGeometry x="490" y="220" as="geometry">
            <mxPoint x="78" y="-1" as="offset" />
          </mxGeometry>
        </mxCell>
        <mxCell id="oZB_IGU-Cqb-h6OOu6P0-76" value="a, 2, e" style="edgeLabel;html=1;align=center;verticalAlign=middle;resizable=0;points=[];strokeColor=default;fontFamily=Helvetica;fontSize=12;fontColor=default;fillColor=default;" vertex="1" connectable="0" parent="1">
          <mxGeometry x="55" y="260" as="geometry">
            <mxPoint x="411" y="-10" as="offset" />
          </mxGeometry>
        </mxCell>
        <mxCell id="oZB_IGU-Cqb-h6OOu6P0-77" value="2, e, 2" style="edgeLabel;html=1;align=center;verticalAlign=middle;resizable=0;points=[];strokeColor=default;fontFamily=Helvetica;fontSize=12;fontColor=default;fillColor=default;" vertex="1" connectable="0" parent="1">
          <mxGeometry x="490" y="238" as="geometry">
            <mxPoint x="78" y="-1" as="offset" />
          </mxGeometry>
        </mxCell>
        <mxCell id="oZB_IGU-Cqb-h6OOu6P0-78" value="3, e, 3" style="edgeLabel;html=1;align=center;verticalAlign=middle;resizable=0;points=[];strokeColor=default;fontFamily=Helvetica;fontSize=12;fontColor=default;fillColor=default;" vertex="1" connectable="0" parent="1">
          <mxGeometry x="490" y="260" as="geometry">
            <mxPoint x="78" y="-1" as="offset" />
          </mxGeometry>
        </mxCell>
        <mxCell id="oZB_IGU-Cqb-h6OOu6P0-79" value="a, e, e" style="edgeLabel;html=1;align=center;verticalAlign=middle;resizable=0;points=[];strokeColor=default;fontFamily=Helvetica;fontSize=12;fontColor=default;fillColor=default;" vertex="1" connectable="0" parent="1">
          <mxGeometry x="390" y="230" as="geometry">
            <mxPoint x="78" y="-1" as="offset" />
          </mxGeometry>
        </mxCell>
        <mxCell id="oZB_IGU-Cqb-h6OOu6P0-80" value="a, e, e" style="edgeLabel;html=1;align=center;verticalAlign=middle;resizable=0;points=[];strokeColor=default;fontFamily=Helvetica;fontSize=12;fontColor=default;fillColor=default;" vertex="1" connectable="0" parent="1">
          <mxGeometry x="600" y="230" as="geometry">
            <mxPoint x="78" y="-1" as="offset" />
          </mxGeometry>
        </mxCell>
        <mxCell id="oZB_IGU-Cqb-h6OOu6P0-81" value="a, 3, e" style="edgeLabel;html=1;align=center;verticalAlign=middle;resizable=0;points=[];strokeColor=default;fontFamily=Helvetica;fontSize=12;fontColor=default;fillColor=default;" vertex="1" connectable="0" parent="1">
          <mxGeometry x="270" y="260" as="geometry">
            <mxPoint x="411" y="-10" as="offset" />
          </mxGeometry>
        </mxCell>
        <mxCell id="oZB_IGU-Cqb-h6OOu6P0-83" value="2, e, 2" style="edgeLabel;html=1;align=center;verticalAlign=middle;resizable=0;points=[];strokeColor=default;fontFamily=Helvetica;fontSize=12;fontColor=default;fillColor=default;" vertex="1" connectable="0" parent="1">
          <mxGeometry x="700" y="220" as="geometry">
            <mxPoint x="78" y="-1" as="offset" />
          </mxGeometry>
        </mxCell>
        <mxCell id="oZB_IGU-Cqb-h6OOu6P0-84" value="t, e, L" style="edgeLabel;html=1;align=center;verticalAlign=middle;resizable=0;points=[];strokeColor=default;fontFamily=Helvetica;fontSize=12;fontColor=default;fillColor=default;" vertex="1" connectable="0" parent="1">
          <mxGeometry x="700" y="238" as="geometry">
            <mxPoint x="78" y="-1" as="offset" />
          </mxGeometry>
        </mxCell>
        <mxCell id="oZB_IGU-Cqb-h6OOu6P0-85" value="0, e, 0" style="edgeLabel;html=1;align=center;verticalAlign=middle;resizable=0;points=[];strokeColor=default;fontFamily=Helvetica;fontSize=12;fontColor=default;fillColor=default;" vertex="1" connectable="0" parent="1">
          <mxGeometry x="700" y="180" as="geometry">
            <mxPoint x="78" y="-1" as="offset" />
          </mxGeometry>
        </mxCell>
        <mxCell id="oZB_IGU-Cqb-h6OOu6P0-86" value="1, e, 1" style="edgeLabel;html=1;align=center;verticalAlign=middle;resizable=0;points=[];strokeColor=default;fontFamily=Helvetica;fontSize=12;fontColor=default;fillColor=default;" vertex="1" connectable="0" parent="1">
          <mxGeometry x="780.0032034355964" y="200.00320343559648" as="geometry" />
        </mxCell>
        <mxCell id="oZB_IGU-Cqb-h6OOu6P0-87" value="a, e, e" style="edgeLabel;html=1;align=center;verticalAlign=middle;resizable=0;points=[];strokeColor=default;fontFamily=Helvetica;fontSize=12;fontColor=default;fillColor=default;" vertex="1" connectable="0" parent="1">
          <mxGeometry x="-40" y="230" as="geometry">
            <mxPoint x="78" y="-1" as="offset" />
          </mxGeometry>
        </mxCell>
        <mxCell id="oZB_IGU-Cqb-h6OOu6P0-88" value="a, 1, e" style="edgeLabel;html=1;align=center;verticalAlign=middle;resizable=0;points=[];strokeColor=default;fontFamily=Helvetica;fontSize=12;fontColor=default;fillColor=default;" vertex="1" connectable="0" parent="1">
          <mxGeometry x="-40" y="250" as="geometry">
            <mxPoint x="78" y="-1" as="offset" />
          </mxGeometry>
        </mxCell>
      </root>
    </mxGraphModel>
  </diagram>
</mxfile>
